<mxfile host="app.diagrams.net" agent="Mozilla/5.0 (Windows NT 10.0; Win64; x64) AppleWebKit/537.36 (KHTML, like Gecko) Chrome/131.0.0.0 Safari/537.36" version="26.0.4">
  <diagram name="Page-1" id="1rfh4y_9Av0o-2rSlD1Q">
    <mxGraphModel dx="1134" dy="704" grid="0" gridSize="10" guides="1" tooltips="1" connect="1" arrows="1" fold="1" page="1" pageScale="1" pageWidth="1100" pageHeight="850" math="0" shadow="0">
      <root>
        <mxCell id="0" />
        <mxCell id="1" parent="0" />
        <mxCell id="C4Tq9bEea2v_1nruEv8x-1" value="Courses" style="shape=table;startSize=30;container=1;collapsible=1;childLayout=tableLayout;fixedRows=1;rowLines=0;fontStyle=1;align=center;resizeLast=1;html=1;swimlaneLine=1;" parent="1" vertex="1">
          <mxGeometry x="375" y="474" width="253.41668701171875" height="240" as="geometry" />
        </mxCell>
        <mxCell id="C4Tq9bEea2v_1nruEv8x-2" value="" style="shape=tableRow;horizontal=0;startSize=0;swimlaneHead=0;swimlaneBody=0;fillColor=none;collapsible=0;dropTarget=0;points=[[0,0.5],[1,0.5]];portConstraint=eastwest;top=0;left=0;right=0;bottom=1;" parent="C4Tq9bEea2v_1nruEv8x-1" vertex="1">
          <mxGeometry y="30" width="253.41668701171875" height="30" as="geometry" />
        </mxCell>
        <mxCell id="C4Tq9bEea2v_1nruEv8x-3" value="PK" style="shape=partialRectangle;connectable=0;fillColor=none;top=0;left=0;bottom=0;right=0;fontStyle=1;overflow=hidden;whiteSpace=wrap;html=1;" parent="C4Tq9bEea2v_1nruEv8x-2" vertex="1">
          <mxGeometry width="30" height="30" as="geometry">
            <mxRectangle width="30" height="30" as="alternateBounds" />
          </mxGeometry>
        </mxCell>
        <mxCell id="C4Tq9bEea2v_1nruEv8x-4" value="Id" style="shape=partialRectangle;connectable=0;fillColor=none;top=0;left=0;bottom=0;right=0;align=left;spacingLeft=6;fontStyle=5;overflow=hidden;whiteSpace=wrap;html=1;" parent="C4Tq9bEea2v_1nruEv8x-2" vertex="1">
          <mxGeometry x="30" width="150" height="30" as="geometry">
            <mxRectangle width="150" height="30" as="alternateBounds" />
          </mxGeometry>
        </mxCell>
        <mxCell id="C4Tq9bEea2v_1nruEv8x-141" value="INTEGER" style="shape=partialRectangle;connectable=0;fillColor=none;top=0;left=0;bottom=0;right=0;align=left;spacingLeft=6;fontStyle=5;overflow=hidden;whiteSpace=wrap;html=1;" parent="C4Tq9bEea2v_1nruEv8x-2" vertex="1">
          <mxGeometry x="180" width="73.41668701171875" height="30" as="geometry">
            <mxRectangle width="73.41668701171875" height="30" as="alternateBounds" />
          </mxGeometry>
        </mxCell>
        <mxCell id="C4Tq9bEea2v_1nruEv8x-5" value="" style="shape=tableRow;horizontal=0;startSize=0;swimlaneHead=0;swimlaneBody=0;fillColor=none;collapsible=0;dropTarget=0;points=[[0,0.5],[1,0.5]];portConstraint=eastwest;top=0;left=0;right=0;bottom=0;" parent="C4Tq9bEea2v_1nruEv8x-1" vertex="1">
          <mxGeometry y="60" width="253.41668701171875" height="30" as="geometry" />
        </mxCell>
        <mxCell id="C4Tq9bEea2v_1nruEv8x-6" value="" style="shape=partialRectangle;connectable=0;fillColor=none;top=0;left=0;bottom=0;right=0;editable=1;overflow=hidden;whiteSpace=wrap;html=1;" parent="C4Tq9bEea2v_1nruEv8x-5" vertex="1">
          <mxGeometry width="30" height="30" as="geometry">
            <mxRectangle width="30" height="30" as="alternateBounds" />
          </mxGeometry>
        </mxCell>
        <mxCell id="C4Tq9bEea2v_1nruEv8x-7" value="title" style="shape=partialRectangle;connectable=0;fillColor=none;top=0;left=0;bottom=0;right=0;align=left;spacingLeft=6;overflow=hidden;whiteSpace=wrap;html=1;" parent="C4Tq9bEea2v_1nruEv8x-5" vertex="1">
          <mxGeometry x="30" width="150" height="30" as="geometry">
            <mxRectangle width="150" height="30" as="alternateBounds" />
          </mxGeometry>
        </mxCell>
        <mxCell id="C4Tq9bEea2v_1nruEv8x-142" value="VARCHAR" style="shape=partialRectangle;connectable=0;fillColor=none;top=0;left=0;bottom=0;right=0;align=left;spacingLeft=6;overflow=hidden;whiteSpace=wrap;html=1;" parent="C4Tq9bEea2v_1nruEv8x-5" vertex="1">
          <mxGeometry x="180" width="73.41668701171875" height="30" as="geometry">
            <mxRectangle width="73.41668701171875" height="30" as="alternateBounds" />
          </mxGeometry>
        </mxCell>
        <mxCell id="C4Tq9bEea2v_1nruEv8x-8" value="" style="shape=tableRow;horizontal=0;startSize=0;swimlaneHead=0;swimlaneBody=0;fillColor=none;collapsible=0;dropTarget=0;points=[[0,0.5],[1,0.5]];portConstraint=eastwest;top=0;left=0;right=0;bottom=0;" parent="C4Tq9bEea2v_1nruEv8x-1" vertex="1">
          <mxGeometry y="90" width="253.41668701171875" height="30" as="geometry" />
        </mxCell>
        <mxCell id="C4Tq9bEea2v_1nruEv8x-9" value="" style="shape=partialRectangle;connectable=0;fillColor=none;top=0;left=0;bottom=0;right=0;editable=1;overflow=hidden;whiteSpace=wrap;html=1;" parent="C4Tq9bEea2v_1nruEv8x-8" vertex="1">
          <mxGeometry width="30" height="30" as="geometry">
            <mxRectangle width="30" height="30" as="alternateBounds" />
          </mxGeometry>
        </mxCell>
        <mxCell id="C4Tq9bEea2v_1nruEv8x-10" value="price" style="shape=partialRectangle;connectable=0;fillColor=none;top=0;left=0;bottom=0;right=0;align=left;spacingLeft=6;overflow=hidden;whiteSpace=wrap;html=1;" parent="C4Tq9bEea2v_1nruEv8x-8" vertex="1">
          <mxGeometry x="30" width="150" height="30" as="geometry">
            <mxRectangle width="150" height="30" as="alternateBounds" />
          </mxGeometry>
        </mxCell>
        <mxCell id="C4Tq9bEea2v_1nruEv8x-143" value="INTEGER" style="shape=partialRectangle;connectable=0;fillColor=none;top=0;left=0;bottom=0;right=0;align=left;spacingLeft=6;overflow=hidden;whiteSpace=wrap;html=1;" parent="C4Tq9bEea2v_1nruEv8x-8" vertex="1">
          <mxGeometry x="180" width="73.41668701171875" height="30" as="geometry">
            <mxRectangle width="73.41668701171875" height="30" as="alternateBounds" />
          </mxGeometry>
        </mxCell>
        <mxCell id="C4Tq9bEea2v_1nruEv8x-11" value="" style="shape=tableRow;horizontal=0;startSize=0;swimlaneHead=0;swimlaneBody=0;fillColor=none;collapsible=0;dropTarget=0;points=[[0,0.5],[1,0.5]];portConstraint=eastwest;top=0;left=0;right=0;bottom=0;" parent="C4Tq9bEea2v_1nruEv8x-1" vertex="1">
          <mxGeometry y="120" width="253.41668701171875" height="30" as="geometry" />
        </mxCell>
        <mxCell id="C4Tq9bEea2v_1nruEv8x-12" value="" style="shape=partialRectangle;connectable=0;fillColor=none;top=0;left=0;bottom=0;right=0;editable=1;overflow=hidden;whiteSpace=wrap;html=1;" parent="C4Tq9bEea2v_1nruEv8x-11" vertex="1">
          <mxGeometry width="30" height="30" as="geometry">
            <mxRectangle width="30" height="30" as="alternateBounds" />
          </mxGeometry>
        </mxCell>
        <mxCell id="C4Tq9bEea2v_1nruEv8x-13" value="duration" style="shape=partialRectangle;connectable=0;fillColor=none;top=0;left=0;bottom=0;right=0;align=left;spacingLeft=6;overflow=hidden;whiteSpace=wrap;html=1;" parent="C4Tq9bEea2v_1nruEv8x-11" vertex="1">
          <mxGeometry x="30" width="150" height="30" as="geometry">
            <mxRectangle width="150" height="30" as="alternateBounds" />
          </mxGeometry>
        </mxCell>
        <mxCell id="C4Tq9bEea2v_1nruEv8x-144" value="VARCHAR" style="shape=partialRectangle;connectable=0;fillColor=none;top=0;left=0;bottom=0;right=0;align=left;spacingLeft=6;overflow=hidden;whiteSpace=wrap;html=1;" parent="C4Tq9bEea2v_1nruEv8x-11" vertex="1">
          <mxGeometry x="180" width="73.41668701171875" height="30" as="geometry">
            <mxRectangle width="73.41668701171875" height="30" as="alternateBounds" />
          </mxGeometry>
        </mxCell>
        <mxCell id="C4Tq9bEea2v_1nruEv8x-76" style="shape=tableRow;horizontal=0;startSize=0;swimlaneHead=0;swimlaneBody=0;fillColor=none;collapsible=0;dropTarget=0;points=[[0,0.5],[1,0.5]];portConstraint=eastwest;top=0;left=0;right=0;bottom=0;" parent="C4Tq9bEea2v_1nruEv8x-1" vertex="1">
          <mxGeometry y="150" width="253.41668701171875" height="30" as="geometry" />
        </mxCell>
        <mxCell id="C4Tq9bEea2v_1nruEv8x-77" value="FK" style="shape=partialRectangle;connectable=0;fillColor=none;top=0;left=0;bottom=0;right=0;editable=1;overflow=hidden;whiteSpace=wrap;html=1;" parent="C4Tq9bEea2v_1nruEv8x-76" vertex="1">
          <mxGeometry width="30" height="30" as="geometry">
            <mxRectangle width="30" height="30" as="alternateBounds" />
          </mxGeometry>
        </mxCell>
        <mxCell id="C4Tq9bEea2v_1nruEv8x-78" value="CategoryId" style="shape=partialRectangle;connectable=0;fillColor=none;top=0;left=0;bottom=0;right=0;align=left;spacingLeft=6;overflow=hidden;whiteSpace=wrap;html=1;" parent="C4Tq9bEea2v_1nruEv8x-76" vertex="1">
          <mxGeometry x="30" width="150" height="30" as="geometry">
            <mxRectangle width="150" height="30" as="alternateBounds" />
          </mxGeometry>
        </mxCell>
        <mxCell id="C4Tq9bEea2v_1nruEv8x-145" value="VARCHAR" style="shape=partialRectangle;connectable=0;fillColor=none;top=0;left=0;bottom=0;right=0;align=left;spacingLeft=6;overflow=hidden;whiteSpace=wrap;html=1;" parent="C4Tq9bEea2v_1nruEv8x-76" vertex="1">
          <mxGeometry x="180" width="73.41668701171875" height="30" as="geometry">
            <mxRectangle width="73.41668701171875" height="30" as="alternateBounds" />
          </mxGeometry>
        </mxCell>
        <mxCell id="C4Tq9bEea2v_1nruEv8x-114" style="shape=tableRow;horizontal=0;startSize=0;swimlaneHead=0;swimlaneBody=0;fillColor=none;collapsible=0;dropTarget=0;points=[[0,0.5],[1,0.5]];portConstraint=eastwest;top=0;left=0;right=0;bottom=0;" parent="C4Tq9bEea2v_1nruEv8x-1" vertex="1">
          <mxGeometry y="180" width="253.41668701171875" height="30" as="geometry" />
        </mxCell>
        <mxCell id="C4Tq9bEea2v_1nruEv8x-115" style="shape=partialRectangle;connectable=0;fillColor=none;top=0;left=0;bottom=0;right=0;editable=1;overflow=hidden;whiteSpace=wrap;html=1;" parent="C4Tq9bEea2v_1nruEv8x-114" vertex="1">
          <mxGeometry width="30" height="30" as="geometry">
            <mxRectangle width="30" height="30" as="alternateBounds" />
          </mxGeometry>
        </mxCell>
        <mxCell id="C4Tq9bEea2v_1nruEv8x-116" value="createdAt" style="shape=partialRectangle;connectable=0;fillColor=none;top=0;left=0;bottom=0;right=0;align=left;spacingLeft=6;overflow=hidden;whiteSpace=wrap;html=1;" parent="C4Tq9bEea2v_1nruEv8x-114" vertex="1">
          <mxGeometry x="30" width="150" height="30" as="geometry">
            <mxRectangle width="150" height="30" as="alternateBounds" />
          </mxGeometry>
        </mxCell>
        <mxCell id="C4Tq9bEea2v_1nruEv8x-146" value="DATETIME" style="shape=partialRectangle;connectable=0;fillColor=none;top=0;left=0;bottom=0;right=0;align=left;spacingLeft=6;overflow=hidden;whiteSpace=wrap;html=1;" parent="C4Tq9bEea2v_1nruEv8x-114" vertex="1">
          <mxGeometry x="180" width="73.41668701171875" height="30" as="geometry">
            <mxRectangle width="73.41668701171875" height="30" as="alternateBounds" />
          </mxGeometry>
        </mxCell>
        <mxCell id="C4Tq9bEea2v_1nruEv8x-111" style="shape=tableRow;horizontal=0;startSize=0;swimlaneHead=0;swimlaneBody=0;fillColor=none;collapsible=0;dropTarget=0;points=[[0,0.5],[1,0.5]];portConstraint=eastwest;top=0;left=0;right=0;bottom=0;" parent="C4Tq9bEea2v_1nruEv8x-1" vertex="1">
          <mxGeometry y="210" width="253.41668701171875" height="30" as="geometry" />
        </mxCell>
        <mxCell id="C4Tq9bEea2v_1nruEv8x-112" style="shape=partialRectangle;connectable=0;fillColor=none;top=0;left=0;bottom=0;right=0;editable=1;overflow=hidden;whiteSpace=wrap;html=1;" parent="C4Tq9bEea2v_1nruEv8x-111" vertex="1">
          <mxGeometry width="30" height="30" as="geometry">
            <mxRectangle width="30" height="30" as="alternateBounds" />
          </mxGeometry>
        </mxCell>
        <mxCell id="C4Tq9bEea2v_1nruEv8x-113" value="updatetAt" style="shape=partialRectangle;connectable=0;fillColor=none;top=0;left=0;bottom=0;right=0;align=left;spacingLeft=6;overflow=hidden;whiteSpace=wrap;html=1;" parent="C4Tq9bEea2v_1nruEv8x-111" vertex="1">
          <mxGeometry x="30" width="150" height="30" as="geometry">
            <mxRectangle width="150" height="30" as="alternateBounds" />
          </mxGeometry>
        </mxCell>
        <mxCell id="C4Tq9bEea2v_1nruEv8x-147" value="DATETIME" style="shape=partialRectangle;connectable=0;fillColor=none;top=0;left=0;bottom=0;right=0;align=left;spacingLeft=6;overflow=hidden;whiteSpace=wrap;html=1;" parent="C4Tq9bEea2v_1nruEv8x-111" vertex="1">
          <mxGeometry x="180" width="73.41668701171875" height="30" as="geometry">
            <mxRectangle width="73.41668701171875" height="30" as="alternateBounds" />
          </mxGeometry>
        </mxCell>
        <mxCell id="C4Tq9bEea2v_1nruEv8x-14" value="UserProfiles" style="shape=table;startSize=30;container=1;collapsible=1;childLayout=tableLayout;fixedRows=1;rowLines=0;fontStyle=1;align=center;resizeLast=1;html=1;" parent="1" vertex="1">
          <mxGeometry x="22" y="69" width="254.0833740234375" height="300" as="geometry" />
        </mxCell>
        <mxCell id="C4Tq9bEea2v_1nruEv8x-15" value="" style="shape=tableRow;horizontal=0;startSize=0;swimlaneHead=0;swimlaneBody=0;fillColor=none;collapsible=0;dropTarget=0;points=[[0,0.5],[1,0.5]];portConstraint=eastwest;top=0;left=0;right=0;bottom=1;" parent="C4Tq9bEea2v_1nruEv8x-14" vertex="1">
          <mxGeometry y="30" width="254.0833740234375" height="30" as="geometry" />
        </mxCell>
        <mxCell id="C4Tq9bEea2v_1nruEv8x-16" value="PK" style="shape=partialRectangle;connectable=0;fillColor=none;top=0;left=0;bottom=0;right=0;fontStyle=1;overflow=hidden;whiteSpace=wrap;html=1;" parent="C4Tq9bEea2v_1nruEv8x-15" vertex="1">
          <mxGeometry width="30" height="30" as="geometry">
            <mxRectangle width="30" height="30" as="alternateBounds" />
          </mxGeometry>
        </mxCell>
        <mxCell id="C4Tq9bEea2v_1nruEv8x-17" value="Id" style="shape=partialRectangle;connectable=0;fillColor=none;top=0;left=0;bottom=0;right=0;align=left;spacingLeft=6;fontStyle=5;overflow=hidden;whiteSpace=wrap;html=1;" parent="C4Tq9bEea2v_1nruEv8x-15" vertex="1">
          <mxGeometry x="30" width="150" height="30" as="geometry">
            <mxRectangle width="150" height="30" as="alternateBounds" />
          </mxGeometry>
        </mxCell>
        <mxCell id="C4Tq9bEea2v_1nruEv8x-148" value="INTEGER" style="shape=partialRectangle;connectable=0;fillColor=none;top=0;left=0;bottom=0;right=0;align=left;spacingLeft=6;fontStyle=5;overflow=hidden;whiteSpace=wrap;html=1;" parent="C4Tq9bEea2v_1nruEv8x-15" vertex="1">
          <mxGeometry x="180" width="74.0833740234375" height="30" as="geometry">
            <mxRectangle width="74.0833740234375" height="30" as="alternateBounds" />
          </mxGeometry>
        </mxCell>
        <mxCell id="C4Tq9bEea2v_1nruEv8x-18" value="" style="shape=tableRow;horizontal=0;startSize=0;swimlaneHead=0;swimlaneBody=0;fillColor=none;collapsible=0;dropTarget=0;points=[[0,0.5],[1,0.5]];portConstraint=eastwest;top=0;left=0;right=0;bottom=0;" parent="C4Tq9bEea2v_1nruEv8x-14" vertex="1">
          <mxGeometry y="60" width="254.0833740234375" height="30" as="geometry" />
        </mxCell>
        <mxCell id="C4Tq9bEea2v_1nruEv8x-19" value="FK" style="shape=partialRectangle;connectable=0;fillColor=none;top=0;left=0;bottom=0;right=0;editable=1;overflow=hidden;whiteSpace=wrap;html=1;" parent="C4Tq9bEea2v_1nruEv8x-18" vertex="1">
          <mxGeometry width="30" height="30" as="geometry">
            <mxRectangle width="30" height="30" as="alternateBounds" />
          </mxGeometry>
        </mxCell>
        <mxCell id="C4Tq9bEea2v_1nruEv8x-20" value="UserId" style="shape=partialRectangle;connectable=0;fillColor=none;top=0;left=0;bottom=0;right=0;align=left;spacingLeft=6;overflow=hidden;whiteSpace=wrap;html=1;" parent="C4Tq9bEea2v_1nruEv8x-18" vertex="1">
          <mxGeometry x="30" width="150" height="30" as="geometry">
            <mxRectangle width="150" height="30" as="alternateBounds" />
          </mxGeometry>
        </mxCell>
        <mxCell id="C4Tq9bEea2v_1nruEv8x-149" value="INTEGER" style="shape=partialRectangle;connectable=0;fillColor=none;top=0;left=0;bottom=0;right=0;align=left;spacingLeft=6;overflow=hidden;whiteSpace=wrap;html=1;" parent="C4Tq9bEea2v_1nruEv8x-18" vertex="1">
          <mxGeometry x="180" width="74.0833740234375" height="30" as="geometry">
            <mxRectangle width="74.0833740234375" height="30" as="alternateBounds" />
          </mxGeometry>
        </mxCell>
        <mxCell id="C4Tq9bEea2v_1nruEv8x-21" value="" style="shape=tableRow;horizontal=0;startSize=0;swimlaneHead=0;swimlaneBody=0;fillColor=none;collapsible=0;dropTarget=0;points=[[0,0.5],[1,0.5]];portConstraint=eastwest;top=0;left=0;right=0;bottom=0;" parent="C4Tq9bEea2v_1nruEv8x-14" vertex="1">
          <mxGeometry y="90" width="254.0833740234375" height="30" as="geometry" />
        </mxCell>
        <mxCell id="C4Tq9bEea2v_1nruEv8x-22" value="" style="shape=partialRectangle;connectable=0;fillColor=none;top=0;left=0;bottom=0;right=0;editable=1;overflow=hidden;whiteSpace=wrap;html=1;" parent="C4Tq9bEea2v_1nruEv8x-21" vertex="1">
          <mxGeometry width="30" height="30" as="geometry">
            <mxRectangle width="30" height="30" as="alternateBounds" />
          </mxGeometry>
        </mxCell>
        <mxCell id="C4Tq9bEea2v_1nruEv8x-23" value="bio" style="shape=partialRectangle;connectable=0;fillColor=none;top=0;left=0;bottom=0;right=0;align=left;spacingLeft=6;overflow=hidden;whiteSpace=wrap;html=1;" parent="C4Tq9bEea2v_1nruEv8x-21" vertex="1">
          <mxGeometry x="30" width="150" height="30" as="geometry">
            <mxRectangle width="150" height="30" as="alternateBounds" />
          </mxGeometry>
        </mxCell>
        <mxCell id="C4Tq9bEea2v_1nruEv8x-150" value="VARCHAR" style="shape=partialRectangle;connectable=0;fillColor=none;top=0;left=0;bottom=0;right=0;align=left;spacingLeft=6;overflow=hidden;whiteSpace=wrap;html=1;" parent="C4Tq9bEea2v_1nruEv8x-21" vertex="1">
          <mxGeometry x="180" width="74.0833740234375" height="30" as="geometry">
            <mxRectangle width="74.0833740234375" height="30" as="alternateBounds" />
          </mxGeometry>
        </mxCell>
        <mxCell id="C4Tq9bEea2v_1nruEv8x-24" value="" style="shape=tableRow;horizontal=0;startSize=0;swimlaneHead=0;swimlaneBody=0;fillColor=none;collapsible=0;dropTarget=0;points=[[0,0.5],[1,0.5]];portConstraint=eastwest;top=0;left=0;right=0;bottom=0;" parent="C4Tq9bEea2v_1nruEv8x-14" vertex="1">
          <mxGeometry y="120" width="254.0833740234375" height="30" as="geometry" />
        </mxCell>
        <mxCell id="C4Tq9bEea2v_1nruEv8x-25" value="" style="shape=partialRectangle;connectable=0;fillColor=none;top=0;left=0;bottom=0;right=0;editable=1;overflow=hidden;whiteSpace=wrap;html=1;" parent="C4Tq9bEea2v_1nruEv8x-24" vertex="1">
          <mxGeometry width="30" height="30" as="geometry">
            <mxRectangle width="30" height="30" as="alternateBounds" />
          </mxGeometry>
        </mxCell>
        <mxCell id="C4Tq9bEea2v_1nruEv8x-26" value="discordName" style="shape=partialRectangle;connectable=0;fillColor=none;top=0;left=0;bottom=0;right=0;align=left;spacingLeft=6;overflow=hidden;whiteSpace=wrap;html=1;" parent="C4Tq9bEea2v_1nruEv8x-24" vertex="1">
          <mxGeometry x="30" width="150" height="30" as="geometry">
            <mxRectangle width="150" height="30" as="alternateBounds" />
          </mxGeometry>
        </mxCell>
        <mxCell id="C4Tq9bEea2v_1nruEv8x-151" value="VARCHAR" style="shape=partialRectangle;connectable=0;fillColor=none;top=0;left=0;bottom=0;right=0;align=left;spacingLeft=6;overflow=hidden;whiteSpace=wrap;html=1;" parent="C4Tq9bEea2v_1nruEv8x-24" vertex="1">
          <mxGeometry x="180" width="74.0833740234375" height="30" as="geometry">
            <mxRectangle width="74.0833740234375" height="30" as="alternateBounds" />
          </mxGeometry>
        </mxCell>
        <mxCell id="C4Tq9bEea2v_1nruEv8x-67" style="shape=tableRow;horizontal=0;startSize=0;swimlaneHead=0;swimlaneBody=0;fillColor=none;collapsible=0;dropTarget=0;points=[[0,0.5],[1,0.5]];portConstraint=eastwest;top=0;left=0;right=0;bottom=0;" parent="C4Tq9bEea2v_1nruEv8x-14" vertex="1">
          <mxGeometry y="150" width="254.0833740234375" height="30" as="geometry" />
        </mxCell>
        <mxCell id="C4Tq9bEea2v_1nruEv8x-68" style="shape=partialRectangle;connectable=0;fillColor=none;top=0;left=0;bottom=0;right=0;editable=1;overflow=hidden;whiteSpace=wrap;html=1;" parent="C4Tq9bEea2v_1nruEv8x-67" vertex="1">
          <mxGeometry width="30" height="30" as="geometry">
            <mxRectangle width="30" height="30" as="alternateBounds" />
          </mxGeometry>
        </mxCell>
        <mxCell id="C4Tq9bEea2v_1nruEv8x-69" value="gender" style="shape=partialRectangle;connectable=0;fillColor=none;top=0;left=0;bottom=0;right=0;align=left;spacingLeft=6;overflow=hidden;whiteSpace=wrap;html=1;" parent="C4Tq9bEea2v_1nruEv8x-67" vertex="1">
          <mxGeometry x="30" width="150" height="30" as="geometry">
            <mxRectangle width="150" height="30" as="alternateBounds" />
          </mxGeometry>
        </mxCell>
        <mxCell id="C4Tq9bEea2v_1nruEv8x-152" value="VARCHAR" style="shape=partialRectangle;connectable=0;fillColor=none;top=0;left=0;bottom=0;right=0;align=left;spacingLeft=6;overflow=hidden;whiteSpace=wrap;html=1;" parent="C4Tq9bEea2v_1nruEv8x-67" vertex="1">
          <mxGeometry x="180" width="74.0833740234375" height="30" as="geometry">
            <mxRectangle width="74.0833740234375" height="30" as="alternateBounds" />
          </mxGeometry>
        </mxCell>
        <mxCell id="C4Tq9bEea2v_1nruEv8x-167" style="shape=tableRow;horizontal=0;startSize=0;swimlaneHead=0;swimlaneBody=0;fillColor=none;collapsible=0;dropTarget=0;points=[[0,0.5],[1,0.5]];portConstraint=eastwest;top=0;left=0;right=0;bottom=0;" parent="C4Tq9bEea2v_1nruEv8x-14" vertex="1">
          <mxGeometry y="180" width="254.0833740234375" height="30" as="geometry" />
        </mxCell>
        <mxCell id="C4Tq9bEea2v_1nruEv8x-168" style="shape=partialRectangle;connectable=0;fillColor=none;top=0;left=0;bottom=0;right=0;editable=1;overflow=hidden;whiteSpace=wrap;html=1;" parent="C4Tq9bEea2v_1nruEv8x-167" vertex="1">
          <mxGeometry width="30" height="30" as="geometry">
            <mxRectangle width="30" height="30" as="alternateBounds" />
          </mxGeometry>
        </mxCell>
        <mxCell id="C4Tq9bEea2v_1nruEv8x-169" value="age" style="shape=partialRectangle;connectable=0;fillColor=none;top=0;left=0;bottom=0;right=0;align=left;spacingLeft=6;overflow=hidden;whiteSpace=wrap;html=1;" parent="C4Tq9bEea2v_1nruEv8x-167" vertex="1">
          <mxGeometry x="30" width="150" height="30" as="geometry">
            <mxRectangle width="150" height="30" as="alternateBounds" />
          </mxGeometry>
        </mxCell>
        <mxCell id="C4Tq9bEea2v_1nruEv8x-170" value="INTEGER" style="shape=partialRectangle;connectable=0;fillColor=none;top=0;left=0;bottom=0;right=0;align=left;spacingLeft=6;overflow=hidden;whiteSpace=wrap;html=1;" parent="C4Tq9bEea2v_1nruEv8x-167" vertex="1">
          <mxGeometry x="180" width="74.0833740234375" height="30" as="geometry">
            <mxRectangle width="74.0833740234375" height="30" as="alternateBounds" />
          </mxGeometry>
        </mxCell>
        <mxCell id="C4Tq9bEea2v_1nruEv8x-70" style="shape=tableRow;horizontal=0;startSize=0;swimlaneHead=0;swimlaneBody=0;fillColor=none;collapsible=0;dropTarget=0;points=[[0,0.5],[1,0.5]];portConstraint=eastwest;top=0;left=0;right=0;bottom=0;" parent="C4Tq9bEea2v_1nruEv8x-14" vertex="1">
          <mxGeometry y="210" width="254.0833740234375" height="30" as="geometry" />
        </mxCell>
        <mxCell id="C4Tq9bEea2v_1nruEv8x-71" style="shape=partialRectangle;connectable=0;fillColor=none;top=0;left=0;bottom=0;right=0;editable=1;overflow=hidden;whiteSpace=wrap;html=1;" parent="C4Tq9bEea2v_1nruEv8x-70" vertex="1">
          <mxGeometry width="30" height="30" as="geometry">
            <mxRectangle width="30" height="30" as="alternateBounds" />
          </mxGeometry>
        </mxCell>
        <mxCell id="C4Tq9bEea2v_1nruEv8x-72" value="lastEducation" style="shape=partialRectangle;connectable=0;fillColor=none;top=0;left=0;bottom=0;right=0;align=left;spacingLeft=6;overflow=hidden;whiteSpace=wrap;html=1;" parent="C4Tq9bEea2v_1nruEv8x-70" vertex="1">
          <mxGeometry x="30" width="150" height="30" as="geometry">
            <mxRectangle width="150" height="30" as="alternateBounds" />
          </mxGeometry>
        </mxCell>
        <mxCell id="C4Tq9bEea2v_1nruEv8x-153" value="VARCHAR" style="shape=partialRectangle;connectable=0;fillColor=none;top=0;left=0;bottom=0;right=0;align=left;spacingLeft=6;overflow=hidden;whiteSpace=wrap;html=1;" parent="C4Tq9bEea2v_1nruEv8x-70" vertex="1">
          <mxGeometry x="180" width="74.0833740234375" height="30" as="geometry">
            <mxRectangle width="74.0833740234375" height="30" as="alternateBounds" />
          </mxGeometry>
        </mxCell>
        <mxCell id="C4Tq9bEea2v_1nruEv8x-123" style="shape=tableRow;horizontal=0;startSize=0;swimlaneHead=0;swimlaneBody=0;fillColor=none;collapsible=0;dropTarget=0;points=[[0,0.5],[1,0.5]];portConstraint=eastwest;top=0;left=0;right=0;bottom=0;" parent="C4Tq9bEea2v_1nruEv8x-14" vertex="1">
          <mxGeometry y="240" width="254.0833740234375" height="30" as="geometry" />
        </mxCell>
        <mxCell id="C4Tq9bEea2v_1nruEv8x-124" style="shape=partialRectangle;connectable=0;fillColor=none;top=0;left=0;bottom=0;right=0;editable=1;overflow=hidden;whiteSpace=wrap;html=1;" parent="C4Tq9bEea2v_1nruEv8x-123" vertex="1">
          <mxGeometry width="30" height="30" as="geometry">
            <mxRectangle width="30" height="30" as="alternateBounds" />
          </mxGeometry>
        </mxCell>
        <mxCell id="C4Tq9bEea2v_1nruEv8x-125" value="createdAt" style="shape=partialRectangle;connectable=0;fillColor=none;top=0;left=0;bottom=0;right=0;align=left;spacingLeft=6;overflow=hidden;whiteSpace=wrap;html=1;" parent="C4Tq9bEea2v_1nruEv8x-123" vertex="1">
          <mxGeometry x="30" width="150" height="30" as="geometry">
            <mxRectangle width="150" height="30" as="alternateBounds" />
          </mxGeometry>
        </mxCell>
        <mxCell id="C4Tq9bEea2v_1nruEv8x-154" value="DATETIME" style="shape=partialRectangle;connectable=0;fillColor=none;top=0;left=0;bottom=0;right=0;align=left;spacingLeft=6;overflow=hidden;whiteSpace=wrap;html=1;" parent="C4Tq9bEea2v_1nruEv8x-123" vertex="1">
          <mxGeometry x="180" width="74.0833740234375" height="30" as="geometry">
            <mxRectangle width="74.0833740234375" height="30" as="alternateBounds" />
          </mxGeometry>
        </mxCell>
        <mxCell id="C4Tq9bEea2v_1nruEv8x-129" style="shape=tableRow;horizontal=0;startSize=0;swimlaneHead=0;swimlaneBody=0;fillColor=none;collapsible=0;dropTarget=0;points=[[0,0.5],[1,0.5]];portConstraint=eastwest;top=0;left=0;right=0;bottom=0;" parent="C4Tq9bEea2v_1nruEv8x-14" vertex="1">
          <mxGeometry y="270" width="254.0833740234375" height="30" as="geometry" />
        </mxCell>
        <mxCell id="C4Tq9bEea2v_1nruEv8x-130" style="shape=partialRectangle;connectable=0;fillColor=none;top=0;left=0;bottom=0;right=0;editable=1;overflow=hidden;whiteSpace=wrap;html=1;" parent="C4Tq9bEea2v_1nruEv8x-129" vertex="1">
          <mxGeometry width="30" height="30" as="geometry">
            <mxRectangle width="30" height="30" as="alternateBounds" />
          </mxGeometry>
        </mxCell>
        <mxCell id="C4Tq9bEea2v_1nruEv8x-131" value="updatetAt" style="shape=partialRectangle;connectable=0;fillColor=none;top=0;left=0;bottom=0;right=0;align=left;spacingLeft=6;overflow=hidden;whiteSpace=wrap;html=1;" parent="C4Tq9bEea2v_1nruEv8x-129" vertex="1">
          <mxGeometry x="30" width="150" height="30" as="geometry">
            <mxRectangle width="150" height="30" as="alternateBounds" />
          </mxGeometry>
        </mxCell>
        <mxCell id="C4Tq9bEea2v_1nruEv8x-155" value="DATETIME" style="shape=partialRectangle;connectable=0;fillColor=none;top=0;left=0;bottom=0;right=0;align=left;spacingLeft=6;overflow=hidden;whiteSpace=wrap;html=1;" parent="C4Tq9bEea2v_1nruEv8x-129" vertex="1">
          <mxGeometry x="180" width="74.0833740234375" height="30" as="geometry">
            <mxRectangle width="74.0833740234375" height="30" as="alternateBounds" />
          </mxGeometry>
        </mxCell>
        <mxCell id="C4Tq9bEea2v_1nruEv8x-27" value="User" style="shape=table;startSize=30;container=1;collapsible=1;childLayout=tableLayout;fixedRows=1;rowLines=0;fontStyle=1;align=center;resizeLast=1;html=1;" parent="1" vertex="1">
          <mxGeometry x="373.66999999999996" y="114" width="256.08331298828125" height="240" as="geometry" />
        </mxCell>
        <mxCell id="C4Tq9bEea2v_1nruEv8x-28" value="" style="shape=tableRow;horizontal=0;startSize=0;swimlaneHead=0;swimlaneBody=0;fillColor=none;collapsible=0;dropTarget=0;points=[[0,0.5],[1,0.5]];portConstraint=eastwest;top=0;left=0;right=0;bottom=1;" parent="C4Tq9bEea2v_1nruEv8x-27" vertex="1">
          <mxGeometry y="30" width="256.08331298828125" height="30" as="geometry" />
        </mxCell>
        <mxCell id="C4Tq9bEea2v_1nruEv8x-29" value="PK" style="shape=partialRectangle;connectable=0;fillColor=none;top=0;left=0;bottom=0;right=0;fontStyle=1;overflow=hidden;whiteSpace=wrap;html=1;" parent="C4Tq9bEea2v_1nruEv8x-28" vertex="1">
          <mxGeometry width="30" height="30" as="geometry">
            <mxRectangle width="30" height="30" as="alternateBounds" />
          </mxGeometry>
        </mxCell>
        <mxCell id="C4Tq9bEea2v_1nruEv8x-30" value="Id" style="shape=partialRectangle;connectable=0;fillColor=none;top=0;left=0;bottom=0;right=0;align=left;spacingLeft=6;fontStyle=5;overflow=hidden;whiteSpace=wrap;html=1;" parent="C4Tq9bEea2v_1nruEv8x-28" vertex="1">
          <mxGeometry x="30" width="150" height="30" as="geometry">
            <mxRectangle width="150" height="30" as="alternateBounds" />
          </mxGeometry>
        </mxCell>
        <mxCell id="C4Tq9bEea2v_1nruEv8x-161" value="INTEGER" style="shape=partialRectangle;connectable=0;fillColor=none;top=0;left=0;bottom=0;right=0;align=left;spacingLeft=6;fontStyle=5;overflow=hidden;whiteSpace=wrap;html=1;" parent="C4Tq9bEea2v_1nruEv8x-28" vertex="1">
          <mxGeometry x="180" width="76.08331298828125" height="30" as="geometry">
            <mxRectangle width="76.08331298828125" height="30" as="alternateBounds" />
          </mxGeometry>
        </mxCell>
        <mxCell id="C4Tq9bEea2v_1nruEv8x-31" value="" style="shape=tableRow;horizontal=0;startSize=0;swimlaneHead=0;swimlaneBody=0;fillColor=none;collapsible=0;dropTarget=0;points=[[0,0.5],[1,0.5]];portConstraint=eastwest;top=0;left=0;right=0;bottom=0;" parent="C4Tq9bEea2v_1nruEv8x-27" vertex="1">
          <mxGeometry y="60" width="256.08331298828125" height="30" as="geometry" />
        </mxCell>
        <mxCell id="C4Tq9bEea2v_1nruEv8x-32" value="" style="shape=partialRectangle;connectable=0;fillColor=none;top=0;left=0;bottom=0;right=0;editable=1;overflow=hidden;whiteSpace=wrap;html=1;" parent="C4Tq9bEea2v_1nruEv8x-31" vertex="1">
          <mxGeometry width="30" height="30" as="geometry">
            <mxRectangle width="30" height="30" as="alternateBounds" />
          </mxGeometry>
        </mxCell>
        <mxCell id="C4Tq9bEea2v_1nruEv8x-33" value="name" style="shape=partialRectangle;connectable=0;fillColor=none;top=0;left=0;bottom=0;right=0;align=left;spacingLeft=6;overflow=hidden;whiteSpace=wrap;html=1;" parent="C4Tq9bEea2v_1nruEv8x-31" vertex="1">
          <mxGeometry x="30" width="150" height="30" as="geometry">
            <mxRectangle width="150" height="30" as="alternateBounds" />
          </mxGeometry>
        </mxCell>
        <mxCell id="C4Tq9bEea2v_1nruEv8x-162" value="VARCHAR" style="shape=partialRectangle;connectable=0;fillColor=none;top=0;left=0;bottom=0;right=0;align=left;spacingLeft=6;overflow=hidden;whiteSpace=wrap;html=1;" parent="C4Tq9bEea2v_1nruEv8x-31" vertex="1">
          <mxGeometry x="180" width="76.08331298828125" height="30" as="geometry">
            <mxRectangle width="76.08331298828125" height="30" as="alternateBounds" />
          </mxGeometry>
        </mxCell>
        <mxCell id="C4Tq9bEea2v_1nruEv8x-34" value="" style="shape=tableRow;horizontal=0;startSize=0;swimlaneHead=0;swimlaneBody=0;fillColor=none;collapsible=0;dropTarget=0;points=[[0,0.5],[1,0.5]];portConstraint=eastwest;top=0;left=0;right=0;bottom=0;" parent="C4Tq9bEea2v_1nruEv8x-27" vertex="1">
          <mxGeometry y="90" width="256.08331298828125" height="30" as="geometry" />
        </mxCell>
        <mxCell id="C4Tq9bEea2v_1nruEv8x-35" value="" style="shape=partialRectangle;connectable=0;fillColor=none;top=0;left=0;bottom=0;right=0;editable=1;overflow=hidden;whiteSpace=wrap;html=1;" parent="C4Tq9bEea2v_1nruEv8x-34" vertex="1">
          <mxGeometry width="30" height="30" as="geometry">
            <mxRectangle width="30" height="30" as="alternateBounds" />
          </mxGeometry>
        </mxCell>
        <mxCell id="C4Tq9bEea2v_1nruEv8x-36" value="email" style="shape=partialRectangle;connectable=0;fillColor=none;top=0;left=0;bottom=0;right=0;align=left;spacingLeft=6;overflow=hidden;whiteSpace=wrap;html=1;" parent="C4Tq9bEea2v_1nruEv8x-34" vertex="1">
          <mxGeometry x="30" width="150" height="30" as="geometry">
            <mxRectangle width="150" height="30" as="alternateBounds" />
          </mxGeometry>
        </mxCell>
        <mxCell id="C4Tq9bEea2v_1nruEv8x-163" value="VARCHAR" style="shape=partialRectangle;connectable=0;fillColor=none;top=0;left=0;bottom=0;right=0;align=left;spacingLeft=6;overflow=hidden;whiteSpace=wrap;html=1;" parent="C4Tq9bEea2v_1nruEv8x-34" vertex="1">
          <mxGeometry x="180" width="76.08331298828125" height="30" as="geometry">
            <mxRectangle width="76.08331298828125" height="30" as="alternateBounds" />
          </mxGeometry>
        </mxCell>
        <mxCell id="C4Tq9bEea2v_1nruEv8x-37" value="" style="shape=tableRow;horizontal=0;startSize=0;swimlaneHead=0;swimlaneBody=0;fillColor=none;collapsible=0;dropTarget=0;points=[[0,0.5],[1,0.5]];portConstraint=eastwest;top=0;left=0;right=0;bottom=0;" parent="C4Tq9bEea2v_1nruEv8x-27" vertex="1">
          <mxGeometry y="120" width="256.08331298828125" height="30" as="geometry" />
        </mxCell>
        <mxCell id="C4Tq9bEea2v_1nruEv8x-38" value="" style="shape=partialRectangle;connectable=0;fillColor=none;top=0;left=0;bottom=0;right=0;editable=1;overflow=hidden;whiteSpace=wrap;html=1;" parent="C4Tq9bEea2v_1nruEv8x-37" vertex="1">
          <mxGeometry width="30" height="30" as="geometry">
            <mxRectangle width="30" height="30" as="alternateBounds" />
          </mxGeometry>
        </mxCell>
        <mxCell id="C4Tq9bEea2v_1nruEv8x-39" value="password" style="shape=partialRectangle;connectable=0;fillColor=none;top=0;left=0;bottom=0;right=0;align=left;spacingLeft=6;overflow=hidden;whiteSpace=wrap;html=1;" parent="C4Tq9bEea2v_1nruEv8x-37" vertex="1">
          <mxGeometry x="30" width="150" height="30" as="geometry">
            <mxRectangle width="150" height="30" as="alternateBounds" />
          </mxGeometry>
        </mxCell>
        <mxCell id="C4Tq9bEea2v_1nruEv8x-164" value="VARCHAR" style="shape=partialRectangle;connectable=0;fillColor=none;top=0;left=0;bottom=0;right=0;align=left;spacingLeft=6;overflow=hidden;whiteSpace=wrap;html=1;" parent="C4Tq9bEea2v_1nruEv8x-37" vertex="1">
          <mxGeometry x="180" width="76.08331298828125" height="30" as="geometry">
            <mxRectangle width="76.08331298828125" height="30" as="alternateBounds" />
          </mxGeometry>
        </mxCell>
        <mxCell id="dxon-cqbUyMvVipqUhgC-30" style="shape=tableRow;horizontal=0;startSize=0;swimlaneHead=0;swimlaneBody=0;fillColor=none;collapsible=0;dropTarget=0;points=[[0,0.5],[1,0.5]];portConstraint=eastwest;top=0;left=0;right=0;bottom=0;" vertex="1" parent="C4Tq9bEea2v_1nruEv8x-27">
          <mxGeometry y="150" width="256.08331298828125" height="30" as="geometry" />
        </mxCell>
        <mxCell id="dxon-cqbUyMvVipqUhgC-31" style="shape=partialRectangle;connectable=0;fillColor=none;top=0;left=0;bottom=0;right=0;editable=1;overflow=hidden;whiteSpace=wrap;html=1;" vertex="1" parent="dxon-cqbUyMvVipqUhgC-30">
          <mxGeometry width="30" height="30" as="geometry">
            <mxRectangle width="30" height="30" as="alternateBounds" />
          </mxGeometry>
        </mxCell>
        <mxCell id="dxon-cqbUyMvVipqUhgC-32" value="role" style="shape=partialRectangle;connectable=0;fillColor=none;top=0;left=0;bottom=0;right=0;align=left;spacingLeft=6;overflow=hidden;whiteSpace=wrap;html=1;" vertex="1" parent="dxon-cqbUyMvVipqUhgC-30">
          <mxGeometry x="30" width="150" height="30" as="geometry">
            <mxRectangle width="150" height="30" as="alternateBounds" />
          </mxGeometry>
        </mxCell>
        <mxCell id="dxon-cqbUyMvVipqUhgC-33" value="VARCHAR" style="shape=partialRectangle;connectable=0;fillColor=none;top=0;left=0;bottom=0;right=0;align=left;spacingLeft=6;overflow=hidden;whiteSpace=wrap;html=1;" vertex="1" parent="dxon-cqbUyMvVipqUhgC-30">
          <mxGeometry x="180" width="76.08331298828125" height="30" as="geometry">
            <mxRectangle width="76.08331298828125" height="30" as="alternateBounds" />
          </mxGeometry>
        </mxCell>
        <mxCell id="C4Tq9bEea2v_1nruEv8x-108" style="shape=tableRow;horizontal=0;startSize=0;swimlaneHead=0;swimlaneBody=0;fillColor=none;collapsible=0;dropTarget=0;points=[[0,0.5],[1,0.5]];portConstraint=eastwest;top=0;left=0;right=0;bottom=0;" parent="C4Tq9bEea2v_1nruEv8x-27" vertex="1">
          <mxGeometry y="180" width="256.08331298828125" height="30" as="geometry" />
        </mxCell>
        <mxCell id="C4Tq9bEea2v_1nruEv8x-109" style="shape=partialRectangle;connectable=0;fillColor=none;top=0;left=0;bottom=0;right=0;editable=1;overflow=hidden;whiteSpace=wrap;html=1;" parent="C4Tq9bEea2v_1nruEv8x-108" vertex="1">
          <mxGeometry width="30" height="30" as="geometry">
            <mxRectangle width="30" height="30" as="alternateBounds" />
          </mxGeometry>
        </mxCell>
        <mxCell id="C4Tq9bEea2v_1nruEv8x-110" value="createdAt" style="shape=partialRectangle;connectable=0;fillColor=none;top=0;left=0;bottom=0;right=0;align=left;spacingLeft=6;overflow=hidden;whiteSpace=wrap;html=1;" parent="C4Tq9bEea2v_1nruEv8x-108" vertex="1">
          <mxGeometry x="30" width="150" height="30" as="geometry">
            <mxRectangle width="150" height="30" as="alternateBounds" />
          </mxGeometry>
        </mxCell>
        <mxCell id="C4Tq9bEea2v_1nruEv8x-165" value="DATETIME" style="shape=partialRectangle;connectable=0;fillColor=none;top=0;left=0;bottom=0;right=0;align=left;spacingLeft=6;overflow=hidden;whiteSpace=wrap;html=1;" parent="C4Tq9bEea2v_1nruEv8x-108" vertex="1">
          <mxGeometry x="180" width="76.08331298828125" height="30" as="geometry">
            <mxRectangle width="76.08331298828125" height="30" as="alternateBounds" />
          </mxGeometry>
        </mxCell>
        <mxCell id="C4Tq9bEea2v_1nruEv8x-105" style="shape=tableRow;horizontal=0;startSize=0;swimlaneHead=0;swimlaneBody=0;fillColor=none;collapsible=0;dropTarget=0;points=[[0,0.5],[1,0.5]];portConstraint=eastwest;top=0;left=0;right=0;bottom=0;" parent="C4Tq9bEea2v_1nruEv8x-27" vertex="1">
          <mxGeometry y="210" width="256.08331298828125" height="30" as="geometry" />
        </mxCell>
        <mxCell id="C4Tq9bEea2v_1nruEv8x-106" style="shape=partialRectangle;connectable=0;fillColor=none;top=0;left=0;bottom=0;right=0;editable=1;overflow=hidden;whiteSpace=wrap;html=1;" parent="C4Tq9bEea2v_1nruEv8x-105" vertex="1">
          <mxGeometry width="30" height="30" as="geometry">
            <mxRectangle width="30" height="30" as="alternateBounds" />
          </mxGeometry>
        </mxCell>
        <mxCell id="C4Tq9bEea2v_1nruEv8x-107" value="updatetAt" style="shape=partialRectangle;connectable=0;fillColor=none;top=0;left=0;bottom=0;right=0;align=left;spacingLeft=6;overflow=hidden;whiteSpace=wrap;html=1;" parent="C4Tq9bEea2v_1nruEv8x-105" vertex="1">
          <mxGeometry x="30" width="150" height="30" as="geometry">
            <mxRectangle width="150" height="30" as="alternateBounds" />
          </mxGeometry>
        </mxCell>
        <mxCell id="C4Tq9bEea2v_1nruEv8x-166" value="DATETIME" style="shape=partialRectangle;connectable=0;fillColor=none;top=0;left=0;bottom=0;right=0;align=left;spacingLeft=6;overflow=hidden;whiteSpace=wrap;html=1;" parent="C4Tq9bEea2v_1nruEv8x-105" vertex="1">
          <mxGeometry x="180" width="76.08331298828125" height="30" as="geometry">
            <mxRectangle width="76.08331298828125" height="30" as="alternateBounds" />
          </mxGeometry>
        </mxCell>
        <mxCell id="C4Tq9bEea2v_1nruEv8x-53" value="Categories" style="shape=table;startSize=30;container=1;collapsible=1;childLayout=tableLayout;fixedRows=1;rowLines=0;fontStyle=1;align=center;resizeLast=1;html=1;" parent="1" vertex="1">
          <mxGeometry x="22" y="469" width="256.0833740234375" height="180" as="geometry" />
        </mxCell>
        <mxCell id="C4Tq9bEea2v_1nruEv8x-54" value="" style="shape=tableRow;horizontal=0;startSize=0;swimlaneHead=0;swimlaneBody=0;fillColor=none;collapsible=0;dropTarget=0;points=[[0,0.5],[1,0.5]];portConstraint=eastwest;top=0;left=0;right=0;bottom=1;" parent="C4Tq9bEea2v_1nruEv8x-53" vertex="1">
          <mxGeometry y="30" width="256.0833740234375" height="30" as="geometry" />
        </mxCell>
        <mxCell id="C4Tq9bEea2v_1nruEv8x-55" value="PK" style="shape=partialRectangle;connectable=0;fillColor=none;top=0;left=0;bottom=0;right=0;fontStyle=1;overflow=hidden;whiteSpace=wrap;html=1;" parent="C4Tq9bEea2v_1nruEv8x-54" vertex="1">
          <mxGeometry width="30" height="30" as="geometry">
            <mxRectangle width="30" height="30" as="alternateBounds" />
          </mxGeometry>
        </mxCell>
        <mxCell id="C4Tq9bEea2v_1nruEv8x-56" value="Id" style="shape=partialRectangle;connectable=0;fillColor=none;top=0;left=0;bottom=0;right=0;align=left;spacingLeft=6;fontStyle=5;overflow=hidden;whiteSpace=wrap;html=1;" parent="C4Tq9bEea2v_1nruEv8x-54" vertex="1">
          <mxGeometry x="30" width="150" height="30" as="geometry">
            <mxRectangle width="150" height="30" as="alternateBounds" />
          </mxGeometry>
        </mxCell>
        <mxCell id="C4Tq9bEea2v_1nruEv8x-156" value="INTEGER" style="shape=partialRectangle;connectable=0;fillColor=none;top=0;left=0;bottom=0;right=0;align=left;spacingLeft=6;fontStyle=5;overflow=hidden;whiteSpace=wrap;html=1;" parent="C4Tq9bEea2v_1nruEv8x-54" vertex="1">
          <mxGeometry x="180" width="76.0833740234375" height="30" as="geometry">
            <mxRectangle width="76.0833740234375" height="30" as="alternateBounds" />
          </mxGeometry>
        </mxCell>
        <mxCell id="C4Tq9bEea2v_1nruEv8x-57" value="" style="shape=tableRow;horizontal=0;startSize=0;swimlaneHead=0;swimlaneBody=0;fillColor=none;collapsible=0;dropTarget=0;points=[[0,0.5],[1,0.5]];portConstraint=eastwest;top=0;left=0;right=0;bottom=0;" parent="C4Tq9bEea2v_1nruEv8x-53" vertex="1">
          <mxGeometry y="60" width="256.0833740234375" height="30" as="geometry" />
        </mxCell>
        <mxCell id="C4Tq9bEea2v_1nruEv8x-58" value="" style="shape=partialRectangle;connectable=0;fillColor=none;top=0;left=0;bottom=0;right=0;editable=1;overflow=hidden;whiteSpace=wrap;html=1;" parent="C4Tq9bEea2v_1nruEv8x-57" vertex="1">
          <mxGeometry width="30" height="30" as="geometry">
            <mxRectangle width="30" height="30" as="alternateBounds" />
          </mxGeometry>
        </mxCell>
        <mxCell id="C4Tq9bEea2v_1nruEv8x-59" value="name" style="shape=partialRectangle;connectable=0;fillColor=none;top=0;left=0;bottom=0;right=0;align=left;spacingLeft=6;overflow=hidden;whiteSpace=wrap;html=1;" parent="C4Tq9bEea2v_1nruEv8x-57" vertex="1">
          <mxGeometry x="30" width="150" height="30" as="geometry">
            <mxRectangle width="150" height="30" as="alternateBounds" />
          </mxGeometry>
        </mxCell>
        <mxCell id="C4Tq9bEea2v_1nruEv8x-157" value="VARCHAR" style="shape=partialRectangle;connectable=0;fillColor=none;top=0;left=0;bottom=0;right=0;align=left;spacingLeft=6;overflow=hidden;whiteSpace=wrap;html=1;" parent="C4Tq9bEea2v_1nruEv8x-57" vertex="1">
          <mxGeometry x="180" width="76.0833740234375" height="30" as="geometry">
            <mxRectangle width="76.0833740234375" height="30" as="alternateBounds" />
          </mxGeometry>
        </mxCell>
        <mxCell id="C4Tq9bEea2v_1nruEv8x-60" value="" style="shape=tableRow;horizontal=0;startSize=0;swimlaneHead=0;swimlaneBody=0;fillColor=none;collapsible=0;dropTarget=0;points=[[0,0.5],[1,0.5]];portConstraint=eastwest;top=0;left=0;right=0;bottom=0;" parent="C4Tq9bEea2v_1nruEv8x-53" vertex="1">
          <mxGeometry y="90" width="256.0833740234375" height="30" as="geometry" />
        </mxCell>
        <mxCell id="C4Tq9bEea2v_1nruEv8x-61" value="" style="shape=partialRectangle;connectable=0;fillColor=none;top=0;left=0;bottom=0;right=0;editable=1;overflow=hidden;whiteSpace=wrap;html=1;" parent="C4Tq9bEea2v_1nruEv8x-60" vertex="1">
          <mxGeometry width="30" height="30" as="geometry">
            <mxRectangle width="30" height="30" as="alternateBounds" />
          </mxGeometry>
        </mxCell>
        <mxCell id="C4Tq9bEea2v_1nruEv8x-62" value="description" style="shape=partialRectangle;connectable=0;fillColor=none;top=0;left=0;bottom=0;right=0;align=left;spacingLeft=6;overflow=hidden;whiteSpace=wrap;html=1;" parent="C4Tq9bEea2v_1nruEv8x-60" vertex="1">
          <mxGeometry x="30" width="150" height="30" as="geometry">
            <mxRectangle width="150" height="30" as="alternateBounds" />
          </mxGeometry>
        </mxCell>
        <mxCell id="C4Tq9bEea2v_1nruEv8x-158" value="VARCHAR" style="shape=partialRectangle;connectable=0;fillColor=none;top=0;left=0;bottom=0;right=0;align=left;spacingLeft=6;overflow=hidden;whiteSpace=wrap;html=1;" parent="C4Tq9bEea2v_1nruEv8x-60" vertex="1">
          <mxGeometry x="180" width="76.0833740234375" height="30" as="geometry">
            <mxRectangle width="76.0833740234375" height="30" as="alternateBounds" />
          </mxGeometry>
        </mxCell>
        <mxCell id="C4Tq9bEea2v_1nruEv8x-63" value="" style="shape=tableRow;horizontal=0;startSize=0;swimlaneHead=0;swimlaneBody=0;fillColor=none;collapsible=0;dropTarget=0;points=[[0,0.5],[1,0.5]];portConstraint=eastwest;top=0;left=0;right=0;bottom=0;" parent="C4Tq9bEea2v_1nruEv8x-53" vertex="1">
          <mxGeometry y="120" width="256.0833740234375" height="30" as="geometry" />
        </mxCell>
        <mxCell id="C4Tq9bEea2v_1nruEv8x-64" value="" style="shape=partialRectangle;connectable=0;fillColor=none;top=0;left=0;bottom=0;right=0;editable=1;overflow=hidden;whiteSpace=wrap;html=1;" parent="C4Tq9bEea2v_1nruEv8x-63" vertex="1">
          <mxGeometry width="30" height="30" as="geometry">
            <mxRectangle width="30" height="30" as="alternateBounds" />
          </mxGeometry>
        </mxCell>
        <mxCell id="C4Tq9bEea2v_1nruEv8x-65" value="createdAt" style="shape=partialRectangle;connectable=0;fillColor=none;top=0;left=0;bottom=0;right=0;align=left;spacingLeft=6;overflow=hidden;whiteSpace=wrap;html=1;" parent="C4Tq9bEea2v_1nruEv8x-63" vertex="1">
          <mxGeometry x="30" width="150" height="30" as="geometry">
            <mxRectangle width="150" height="30" as="alternateBounds" />
          </mxGeometry>
        </mxCell>
        <mxCell id="C4Tq9bEea2v_1nruEv8x-159" value="DATETIME" style="shape=partialRectangle;connectable=0;fillColor=none;top=0;left=0;bottom=0;right=0;align=left;spacingLeft=6;overflow=hidden;whiteSpace=wrap;html=1;" parent="C4Tq9bEea2v_1nruEv8x-63" vertex="1">
          <mxGeometry x="180" width="76.0833740234375" height="30" as="geometry">
            <mxRectangle width="76.0833740234375" height="30" as="alternateBounds" />
          </mxGeometry>
        </mxCell>
        <mxCell id="C4Tq9bEea2v_1nruEv8x-126" style="shape=tableRow;horizontal=0;startSize=0;swimlaneHead=0;swimlaneBody=0;fillColor=none;collapsible=0;dropTarget=0;points=[[0,0.5],[1,0.5]];portConstraint=eastwest;top=0;left=0;right=0;bottom=0;" parent="C4Tq9bEea2v_1nruEv8x-53" vertex="1">
          <mxGeometry y="150" width="256.0833740234375" height="30" as="geometry" />
        </mxCell>
        <mxCell id="C4Tq9bEea2v_1nruEv8x-127" style="shape=partialRectangle;connectable=0;fillColor=none;top=0;left=0;bottom=0;right=0;editable=1;overflow=hidden;whiteSpace=wrap;html=1;" parent="C4Tq9bEea2v_1nruEv8x-126" vertex="1">
          <mxGeometry width="30" height="30" as="geometry">
            <mxRectangle width="30" height="30" as="alternateBounds" />
          </mxGeometry>
        </mxCell>
        <mxCell id="C4Tq9bEea2v_1nruEv8x-128" value="updatetAt" style="shape=partialRectangle;connectable=0;fillColor=none;top=0;left=0;bottom=0;right=0;align=left;spacingLeft=6;overflow=hidden;whiteSpace=wrap;html=1;" parent="C4Tq9bEea2v_1nruEv8x-126" vertex="1">
          <mxGeometry x="30" width="150" height="30" as="geometry">
            <mxRectangle width="150" height="30" as="alternateBounds" />
          </mxGeometry>
        </mxCell>
        <mxCell id="C4Tq9bEea2v_1nruEv8x-160" value="DATETIME" style="shape=partialRectangle;connectable=0;fillColor=none;top=0;left=0;bottom=0;right=0;align=left;spacingLeft=6;overflow=hidden;whiteSpace=wrap;html=1;" parent="C4Tq9bEea2v_1nruEv8x-126" vertex="1">
          <mxGeometry x="180" width="76.0833740234375" height="30" as="geometry">
            <mxRectangle width="76.0833740234375" height="30" as="alternateBounds" />
          </mxGeometry>
        </mxCell>
        <mxCell id="C4Tq9bEea2v_1nruEv8x-103" value="" style="edgeStyle=entityRelationEdgeStyle;fontSize=12;html=1;endArrow=ERmandOne;startArrow=ERmandOne;rounded=0;entryX=1;entryY=0.5;entryDx=0;entryDy=0;" parent="1" source="C4Tq9bEea2v_1nruEv8x-28" target="C4Tq9bEea2v_1nruEv8x-18" edge="1">
          <mxGeometry width="100" height="100" relative="1" as="geometry">
            <mxPoint x="292" y="77" as="sourcePoint" />
            <mxPoint x="388.8799999999999" y="55" as="targetPoint" />
          </mxGeometry>
        </mxCell>
        <mxCell id="C4Tq9bEea2v_1nruEv8x-104" value="" style="edgeStyle=entityRelationEdgeStyle;fontSize=12;html=1;endArrow=ERoneToMany;startArrow=ERmandOne;rounded=0;exitX=1;exitY=0.5;exitDx=0;exitDy=0;entryX=0;entryY=0.5;entryDx=0;entryDy=0;" parent="1" source="C4Tq9bEea2v_1nruEv8x-54" target="C4Tq9bEea2v_1nruEv8x-76" edge="1">
          <mxGeometry width="100" height="100" relative="1" as="geometry">
            <mxPoint x="336" y="308" as="sourcePoint" />
            <mxPoint x="436" y="208" as="targetPoint" />
          </mxGeometry>
        </mxCell>
        <mxCell id="3" value="UserCourses" style="shape=table;startSize=30;container=1;collapsible=1;childLayout=tableLayout;fixedRows=1;rowLines=0;fontStyle=1;align=center;resizeLast=1;html=1;" parent="1" vertex="1">
          <mxGeometry x="771" y="354" width="256.0833740234375" height="210" as="geometry" />
        </mxCell>
        <mxCell id="4" value="" style="shape=tableRow;horizontal=0;startSize=0;swimlaneHead=0;swimlaneBody=0;fillColor=none;collapsible=0;dropTarget=0;points=[[0,0.5],[1,0.5]];portConstraint=eastwest;top=0;left=0;right=0;bottom=1;" parent="3" vertex="1">
          <mxGeometry y="30" width="256.0833740234375" height="30" as="geometry" />
        </mxCell>
        <mxCell id="5" value="PK" style="shape=partialRectangle;connectable=0;fillColor=none;top=0;left=0;bottom=0;right=0;fontStyle=1;overflow=hidden;whiteSpace=wrap;html=1;" parent="4" vertex="1">
          <mxGeometry width="30" height="30" as="geometry">
            <mxRectangle width="30" height="30" as="alternateBounds" />
          </mxGeometry>
        </mxCell>
        <mxCell id="6" value="Id" style="shape=partialRectangle;connectable=0;fillColor=none;top=0;left=0;bottom=0;right=0;align=left;spacingLeft=6;fontStyle=5;overflow=hidden;whiteSpace=wrap;html=1;" parent="4" vertex="1">
          <mxGeometry x="30" width="150" height="30" as="geometry">
            <mxRectangle width="150" height="30" as="alternateBounds" />
          </mxGeometry>
        </mxCell>
        <mxCell id="7" value="INTEGER" style="shape=partialRectangle;connectable=0;fillColor=none;top=0;left=0;bottom=0;right=0;align=left;spacingLeft=6;fontStyle=5;overflow=hidden;whiteSpace=wrap;html=1;" parent="4" vertex="1">
          <mxGeometry x="180" width="76.0833740234375" height="30" as="geometry">
            <mxRectangle width="76.0833740234375" height="30" as="alternateBounds" />
          </mxGeometry>
        </mxCell>
        <mxCell id="8" value="" style="shape=tableRow;horizontal=0;startSize=0;swimlaneHead=0;swimlaneBody=0;fillColor=none;collapsible=0;dropTarget=0;points=[[0,0.5],[1,0.5]];portConstraint=eastwest;top=0;left=0;right=0;bottom=0;" parent="3" vertex="1">
          <mxGeometry y="60" width="256.0833740234375" height="30" as="geometry" />
        </mxCell>
        <mxCell id="9" value="FK" style="shape=partialRectangle;connectable=0;fillColor=none;top=0;left=0;bottom=0;right=0;editable=1;overflow=hidden;whiteSpace=wrap;html=1;" parent="8" vertex="1">
          <mxGeometry width="30" height="30" as="geometry">
            <mxRectangle width="30" height="30" as="alternateBounds" />
          </mxGeometry>
        </mxCell>
        <mxCell id="10" value="UserId" style="shape=partialRectangle;connectable=0;fillColor=none;top=0;left=0;bottom=0;right=0;align=left;spacingLeft=6;overflow=hidden;whiteSpace=wrap;html=1;" parent="8" vertex="1">
          <mxGeometry x="30" width="150" height="30" as="geometry">
            <mxRectangle width="150" height="30" as="alternateBounds" />
          </mxGeometry>
        </mxCell>
        <mxCell id="11" value="INTEGER" style="shape=partialRectangle;connectable=0;fillColor=none;top=0;left=0;bottom=0;right=0;align=left;spacingLeft=6;overflow=hidden;whiteSpace=wrap;html=1;" parent="8" vertex="1">
          <mxGeometry x="180" width="76.0833740234375" height="30" as="geometry">
            <mxRectangle width="76.0833740234375" height="30" as="alternateBounds" />
          </mxGeometry>
        </mxCell>
        <mxCell id="12" value="" style="shape=tableRow;horizontal=0;startSize=0;swimlaneHead=0;swimlaneBody=0;fillColor=none;collapsible=0;dropTarget=0;points=[[0,0.5],[1,0.5]];portConstraint=eastwest;top=0;left=0;right=0;bottom=0;" parent="3" vertex="1">
          <mxGeometry y="90" width="256.0833740234375" height="30" as="geometry" />
        </mxCell>
        <mxCell id="13" value="&lt;b&gt;FK&lt;/b&gt;" style="shape=partialRectangle;connectable=0;fillColor=none;top=0;left=0;bottom=0;right=0;editable=1;overflow=hidden;whiteSpace=wrap;html=1;" parent="12" vertex="1">
          <mxGeometry width="30" height="30" as="geometry">
            <mxRectangle width="30" height="30" as="alternateBounds" />
          </mxGeometry>
        </mxCell>
        <mxCell id="14" value="&lt;b&gt;CourseId&lt;/b&gt;" style="shape=partialRectangle;connectable=0;fillColor=none;top=0;left=0;bottom=0;right=0;align=left;spacingLeft=6;overflow=hidden;whiteSpace=wrap;html=1;" parent="12" vertex="1">
          <mxGeometry x="30" width="150" height="30" as="geometry">
            <mxRectangle width="150" height="30" as="alternateBounds" />
          </mxGeometry>
        </mxCell>
        <mxCell id="15" value="INTEGER" style="shape=partialRectangle;connectable=0;fillColor=none;top=0;left=0;bottom=0;right=0;align=left;spacingLeft=6;overflow=hidden;whiteSpace=wrap;html=1;" parent="12" vertex="1">
          <mxGeometry x="180" width="76.0833740234375" height="30" as="geometry">
            <mxRectangle width="76.0833740234375" height="30" as="alternateBounds" />
          </mxGeometry>
        </mxCell>
        <mxCell id="20" style="shape=tableRow;horizontal=0;startSize=0;swimlaneHead=0;swimlaneBody=0;fillColor=none;collapsible=0;dropTarget=0;points=[[0,0.5],[1,0.5]];portConstraint=eastwest;top=0;left=0;right=0;bottom=0;" parent="3" vertex="1">
          <mxGeometry y="120" width="256.0833740234375" height="30" as="geometry" />
        </mxCell>
        <mxCell id="21" value="FK" style="shape=partialRectangle;connectable=0;fillColor=none;top=0;left=0;bottom=0;right=0;editable=1;overflow=hidden;whiteSpace=wrap;html=1;" parent="20" vertex="1">
          <mxGeometry width="30" height="30" as="geometry">
            <mxRectangle width="30" height="30" as="alternateBounds" />
          </mxGeometry>
        </mxCell>
        <mxCell id="22" value="InstructorId" style="shape=partialRectangle;connectable=0;fillColor=none;top=0;left=0;bottom=0;right=0;align=left;spacingLeft=6;overflow=hidden;whiteSpace=wrap;html=1;" parent="20" vertex="1">
          <mxGeometry x="30" width="150" height="30" as="geometry">
            <mxRectangle width="150" height="30" as="alternateBounds" />
          </mxGeometry>
        </mxCell>
        <mxCell id="23" value="INTEGER" style="shape=partialRectangle;connectable=0;fillColor=none;top=0;left=0;bottom=0;right=0;align=left;spacingLeft=6;overflow=hidden;whiteSpace=wrap;html=1;" parent="20" vertex="1">
          <mxGeometry x="180" width="76.0833740234375" height="30" as="geometry">
            <mxRectangle width="76.0833740234375" height="30" as="alternateBounds" />
          </mxGeometry>
        </mxCell>
        <mxCell id="dxon-cqbUyMvVipqUhgC-72" style="shape=tableRow;horizontal=0;startSize=0;swimlaneHead=0;swimlaneBody=0;fillColor=none;collapsible=0;dropTarget=0;points=[[0,0.5],[1,0.5]];portConstraint=eastwest;top=0;left=0;right=0;bottom=0;" vertex="1" parent="3">
          <mxGeometry y="150" width="256.0833740234375" height="30" as="geometry" />
        </mxCell>
        <mxCell id="dxon-cqbUyMvVipqUhgC-73" style="shape=partialRectangle;connectable=0;fillColor=none;top=0;left=0;bottom=0;right=0;editable=1;overflow=hidden;whiteSpace=wrap;html=1;" vertex="1" parent="dxon-cqbUyMvVipqUhgC-72">
          <mxGeometry width="30" height="30" as="geometry">
            <mxRectangle width="30" height="30" as="alternateBounds" />
          </mxGeometry>
        </mxCell>
        <mxCell id="dxon-cqbUyMvVipqUhgC-74" value="createdAt" style="shape=partialRectangle;connectable=0;fillColor=none;top=0;left=0;bottom=0;right=0;align=left;spacingLeft=6;overflow=hidden;whiteSpace=wrap;html=1;" vertex="1" parent="dxon-cqbUyMvVipqUhgC-72">
          <mxGeometry x="30" width="150" height="30" as="geometry">
            <mxRectangle width="150" height="30" as="alternateBounds" />
          </mxGeometry>
        </mxCell>
        <mxCell id="dxon-cqbUyMvVipqUhgC-75" value="DATETIME" style="shape=partialRectangle;connectable=0;fillColor=none;top=0;left=0;bottom=0;right=0;align=left;spacingLeft=6;overflow=hidden;whiteSpace=wrap;html=1;" vertex="1" parent="dxon-cqbUyMvVipqUhgC-72">
          <mxGeometry x="180" width="76.0833740234375" height="30" as="geometry">
            <mxRectangle width="76.0833740234375" height="30" as="alternateBounds" />
          </mxGeometry>
        </mxCell>
        <mxCell id="dxon-cqbUyMvVipqUhgC-76" style="shape=tableRow;horizontal=0;startSize=0;swimlaneHead=0;swimlaneBody=0;fillColor=none;collapsible=0;dropTarget=0;points=[[0,0.5],[1,0.5]];portConstraint=eastwest;top=0;left=0;right=0;bottom=0;" vertex="1" parent="3">
          <mxGeometry y="180" width="256.0833740234375" height="30" as="geometry" />
        </mxCell>
        <mxCell id="dxon-cqbUyMvVipqUhgC-77" style="shape=partialRectangle;connectable=0;fillColor=none;top=0;left=0;bottom=0;right=0;editable=1;overflow=hidden;whiteSpace=wrap;html=1;" vertex="1" parent="dxon-cqbUyMvVipqUhgC-76">
          <mxGeometry width="30" height="30" as="geometry">
            <mxRectangle width="30" height="30" as="alternateBounds" />
          </mxGeometry>
        </mxCell>
        <mxCell id="dxon-cqbUyMvVipqUhgC-78" value="updatedAt" style="shape=partialRectangle;connectable=0;fillColor=none;top=0;left=0;bottom=0;right=0;align=left;spacingLeft=6;overflow=hidden;whiteSpace=wrap;html=1;" vertex="1" parent="dxon-cqbUyMvVipqUhgC-76">
          <mxGeometry x="30" width="150" height="30" as="geometry">
            <mxRectangle width="150" height="30" as="alternateBounds" />
          </mxGeometry>
        </mxCell>
        <mxCell id="dxon-cqbUyMvVipqUhgC-79" value="DATETIME" style="shape=partialRectangle;connectable=0;fillColor=none;top=0;left=0;bottom=0;right=0;align=left;spacingLeft=6;overflow=hidden;whiteSpace=wrap;html=1;" vertex="1" parent="dxon-cqbUyMvVipqUhgC-76">
          <mxGeometry x="180" width="76.0833740234375" height="30" as="geometry">
            <mxRectangle width="76.0833740234375" height="30" as="alternateBounds" />
          </mxGeometry>
        </mxCell>
        <mxCell id="27" value="" style="edgeStyle=entityRelationEdgeStyle;fontSize=12;html=1;endArrow=ERoneToMany;startArrow=ERmandOne;rounded=1;entryX=0;entryY=0.5;entryDx=0;entryDy=0;exitX=1;exitY=0.5;exitDx=0;exitDy=0;" parent="1" source="C4Tq9bEea2v_1nruEv8x-28" target="8" edge="1">
          <mxGeometry width="100" height="100" relative="1" as="geometry">
            <mxPoint x="643.0033129882813" y="109.99999999999989" as="sourcePoint" />
            <mxPoint x="801.25" y="410" as="targetPoint" />
          </mxGeometry>
        </mxCell>
        <mxCell id="28" value="" style="edgeStyle=entityRelationEdgeStyle;fontSize=12;html=1;endArrow=ERoneToMany;startArrow=ERmandOne;rounded=0;exitX=1;exitY=0.5;exitDx=0;exitDy=0;entryX=0;entryY=0.5;entryDx=0;entryDy=0;" parent="1" source="C4Tq9bEea2v_1nruEv8x-2" target="12" edge="1">
          <mxGeometry width="100" height="100" relative="1" as="geometry">
            <mxPoint x="601.9966870117188" y="593" as="sourcePoint" />
            <mxPoint x="751.58" y="529" as="targetPoint" />
          </mxGeometry>
        </mxCell>
        <mxCell id="dxon-cqbUyMvVipqUhgC-29" value="" style="edgeStyle=entityRelationEdgeStyle;fontSize=12;html=1;endArrow=ERoneToMany;startArrow=ERmandOne;rounded=1;entryX=0;entryY=0.5;entryDx=0;entryDy=0;exitX=1;exitY=0.5;exitDx=0;exitDy=0;" edge="1" parent="1" source="C4Tq9bEea2v_1nruEv8x-28" target="20">
          <mxGeometry width="100" height="100" relative="1" as="geometry">
            <mxPoint x="611.7533129882813" y="168.9999999999999" as="sourcePoint" />
            <mxPoint x="770" y="469" as="targetPoint" />
          </mxGeometry>
        </mxCell>
      </root>
    </mxGraphModel>
  </diagram>
</mxfile>
